<?xml version="1.0" encoding="UTF-8" standalone="no"?>
<!-- Created with Inkscape (http://www.inkscape.org/) -->

<svg
   xmlns:dc="http://purl.org/dc/elements/1.1/"
   xmlns:cc="http://creativecommons.org/ns#"
   xmlns:rdf="http://www.w3.org/1999/02/22-rdf-syntax-ns#"
   xmlns:svg="http://www.w3.org/2000/svg"
   xmlns="http://www.w3.org/2000/svg"
   xmlns:sodipodi="http://sodipodi.sourceforge.net/DTD/sodipodi-0.dtd"
   xmlns:inkscape="http://www.inkscape.org/namespaces/inkscape"
   width="1000"
   height="1000"
   id="svg3282"
   version="1.1"
   inkscape:version="0.48.3.1 r9886"
   sodipodi:docname="down.svg">
  <defs
     id="defs3284" />
  <sodipodi:namedview
     id="base"
     pagecolor="#ffffff"
     bordercolor="#666666"
     borderopacity="1.0"
     inkscape:pageopacity="0.0"
     inkscape:pageshadow="2"
     inkscape:zoom="0.21"
     inkscape:cx="-267.38945"
     inkscape:cy="-411.53142"
     inkscape:document-units="px"
     inkscape:current-layer="layer1"
     showgrid="false"
     inkscape:window-width="1680"
     inkscape:window-height="983"
     inkscape:window-x="0"
     inkscape:window-y="0"
     inkscape:window-maximized="1" />
  <metadata
     id="metadata3287">
    <rdf:RDF>
      <cc:Work
         rdf:about="">
        <dc:format>image/svg+xml</dc:format>
        <dc:type
           rdf:resource="http://purl.org/dc/dcmitype/StillImage" />
        <dc:title></dc:title>
      </cc:Work>
    </rdf:RDF>
  </metadata>
  <g
     inkscape:label="Layer 1"
     inkscape:groupmode="layer"
     id="layer1"
     transform="translate(0,-52.362183)">
    <path
       style="fill:#100f0d;fill-opacity:1;fill-rule:nonzero;stroke:none"
       d="M 500 38.9375 C 245.32001 38.9375 38.9375 245.34019 38.9375 500 C 38.9375 754.6001 245.32001 961.0625 500 961.0625 C 754.58075 961.0625 961.0625 754.60011 961.0625 500 C 961.0625 245.3402 754.58075 38.9375 500 38.9375 z M 505.875 246.71875 C 645.3095 246.71875 758.34375 360.07472 758.34375 500 C 758.34375 639.85861 645.3095 753.28125 505.875 753.28125 C 447.2336 753.28125 393.27995 733.19845 350.40625 699.53125 L 393.84375 653.09375 C 425.21245 676.26015 463.9278 689.96875 505.875 689.96875 C 610.4591 689.96875 695.21875 604.89651 695.21875 500 C 695.21875 395.03627 610.4591 310.03125 505.875 310.03125 C 403.4223 310.03125 320.0131 391.62996 316.6875 493.625 L 404.875 493.625 L 291.28125 620.28125 L 177.65625 493.625 L 253.5625 493.625 C 256.9325 356.66791 368.5611 246.71875 505.875 246.71875 z "
       transform="translate(0,52.362183)"
       id="path3100" />
  </g>
</svg>
