<?xml version="1.0" encoding="UTF-8" standalone="no"?>
<!-- Created with Inkscape (http://www.inkscape.org/) -->

<svg
   xmlns:dc="http://purl.org/dc/elements/1.1/"
   xmlns:cc="http://creativecommons.org/ns#"
   xmlns:rdf="http://www.w3.org/1999/02/22-rdf-syntax-ns#"
   xmlns:svg="http://www.w3.org/2000/svg"
   xmlns="http://www.w3.org/2000/svg"
   xmlns:sodipodi="http://sodipodi.sourceforge.net/DTD/sodipodi-0.dtd"
   xmlns:inkscape="http://www.inkscape.org/namespaces/inkscape"
   width="1000"
   height="1000"
   id="svg3282"
   version="1.1"
   inkscape:version="0.48.3.1 r9886"
   sodipodi:docname="tick.svg">
  <defs
     id="defs3284" />
  <sodipodi:namedview
     id="base"
     pagecolor="#ffffff"
     bordercolor="#666666"
     borderopacity="1.0"
     inkscape:pageopacity="0.0"
     inkscape:pageshadow="2"
     inkscape:zoom="0.21"
     inkscape:cx="-1391.199"
     inkscape:cy="329.93973"
     inkscape:document-units="px"
     inkscape:current-layer="layer1"
     showgrid="false"
     inkscape:window-width="1680"
     inkscape:window-height="983"
     inkscape:window-x="0"
     inkscape:window-y="0"
     inkscape:window-maximized="1" />
  <metadata
     id="metadata3287">
    <rdf:RDF>
      <cc:Work
         rdf:about="">
        <dc:format>image/svg+xml</dc:format>
        <dc:type
           rdf:resource="http://purl.org/dc/dcmitype/StillImage" />
        <dc:title></dc:title>
      </cc:Work>
    </rdf:RDF>
  </metadata>
  <g
     inkscape:label="Layer 1"
     inkscape:groupmode="layer"
     id="layer1"
     transform="translate(0,-52.362183)">
    <path
       inkscape:connector-curvature="0"
       id="path3146"
       style="fill:#100f0d;fill-opacity:1;fill-rule:nonzero;stroke:none"
       d="M 864.84777,816.78278 633.59346,552.4532 864.84777,287.94167 c 39.44177,-39.25994 39.44177,-103.01555 0,-142.48761 -39.25987,-39.25993 -103.0458,-39.25993 -142.30569,0 L 500.01896,399.90052 277.46546,145.45406 c -39.2599,-39.25993 -103.0458,-39.25993 -142.336,0 -39.411404,39.47206 -39.411404,103.22767 0,142.48761 l 231.2846,264.51153 -231.2846,264.32958 c -39.411404,39.44176 -39.411404,103.1974 0,142.48752 39.2902,39.25993 103.0761,39.25993 142.336,0 L 500.01896,705.00588 722.54208,959.2703 c 39.25989,39.25993 103.04582,39.25993 142.30569,0 39.44177,-39.29012 39.44177,-103.04576 0,-142.48752" />
  </g>
</svg>
