<?xml version="1.0" encoding="UTF-8" standalone="no"?>
<!-- Created with Inkscape (http://www.inkscape.org/) -->

<svg
   xmlns:dc="http://purl.org/dc/elements/1.1/"
   xmlns:cc="http://creativecommons.org/ns#"
   xmlns:rdf="http://www.w3.org/1999/02/22-rdf-syntax-ns#"
   xmlns:svg="http://www.w3.org/2000/svg"
   xmlns="http://www.w3.org/2000/svg"
   xmlns:sodipodi="http://sodipodi.sourceforge.net/DTD/sodipodi-0.dtd"
   xmlns:inkscape="http://www.inkscape.org/namespaces/inkscape"
   width="1000"
   height="1000"
   id="svg3282"
   version="1.1"
   inkscape:version="0.48.3.1 r9886"
   sodipodi:docname="folder.svg">
  <defs
     id="defs3284" />
  <sodipodi:namedview
     id="base"
     pagecolor="#ffffff"
     bordercolor="#666666"
     borderopacity="1.0"
     inkscape:pageopacity="0.0"
     inkscape:pageshadow="2"
     inkscape:zoom="0.0875"
     inkscape:cx="-6415.3939"
     inkscape:cy="-104.58999"
     inkscape:document-units="px"
     inkscape:current-layer="layer1"
     showgrid="false"
     inkscape:window-width="1680"
     inkscape:window-height="983"
     inkscape:window-x="0"
     inkscape:window-y="0"
     inkscape:window-maximized="1" />
  <metadata
     id="metadata3287">
    <rdf:RDF>
      <cc:Work
         rdf:about="">
        <dc:format>image/svg+xml</dc:format>
        <dc:type
           rdf:resource="http://purl.org/dc/dcmitype/StillImage" />
        <dc:title></dc:title>
      </cc:Work>
    </rdf:RDF>
  </metadata>
  <g
     inkscape:label="Layer 1"
     inkscape:groupmode="layer"
     id="layer1"
     transform="translate(0,-52.362183)">
    <path
       inkscape:connector-curvature="0"
       id="path3174"
       style="fill:#100f0d;fill-opacity:1;fill-rule:nonzero;stroke:none"
       d="m 893.50643,308.89073 c -5.15958,-20.60388 -30.61888,-37.47011 -56.65355,-37.47011 l -319.06201,0 c -25.93353,0 -62.16825,-14.88619 -80.62424,-33.0545 L 409.35566,210.7417 C 390.89967,192.57265 354.6642,177.77115 328.71494,177.77115 l -152.45238,0 c -25.93278,0 -49.54836,20.89156 -52.35627,46.55389 l -13.66875,122.01932 792.72501,0 -9.45612,-37.45363 z m 31.17702,103.00517 -849.378556,0 c -43.069465,0 -45.234588,20.97622 -42.88292,46.53741 l 38.58639,421.8806 c 2.33444,25.57842 8.4245,46.6393 51.510446,46.6393 l 754.98444,0 c 43.91529,0 49.15953,-21.06088 51.49397,-46.6393 l 38.58639,-421.8806 c 2.33514,-25.56119 0.18729,-46.53741 -42.90016,-46.53741" />
  </g>
</svg>
