<?xml version="1.0" encoding="UTF-8" standalone="no"?>
<!-- Created with Inkscape (http://www.inkscape.org/) -->

<svg
   xmlns:dc="http://purl.org/dc/elements/1.1/"
   xmlns:cc="http://creativecommons.org/ns#"
   xmlns:rdf="http://www.w3.org/1999/02/22-rdf-syntax-ns#"
   xmlns:svg="http://www.w3.org/2000/svg"
   xmlns="http://www.w3.org/2000/svg"
   xmlns:sodipodi="http://sodipodi.sourceforge.net/DTD/sodipodi-0.dtd"
   xmlns:inkscape="http://www.inkscape.org/namespaces/inkscape"
   width="1000"
   height="1000"
   id="svg3282"
   version="1.1"
   inkscape:version="0.48.3.1 r9886"
   sodipodi:docname="New document 3">
  <defs
     id="defs3284" />
  <sodipodi:namedview
     id="base"
     pagecolor="#ffffff"
     bordercolor="#666666"
     borderopacity="1.0"
     inkscape:pageopacity="0.0"
     inkscape:pageshadow="2"
     inkscape:zoom="0.35"
     inkscape:cx="375"
     inkscape:cy="520"
     inkscape:document-units="px"
     inkscape:current-layer="layer1"
     showgrid="false"
     inkscape:window-width="1680"
     inkscape:window-height="983"
     inkscape:window-x="0"
     inkscape:window-y="0"
     inkscape:window-maximized="1" />
  <metadata
     id="metadata3287">
    <rdf:RDF>
      <cc:Work
         rdf:about="">
        <dc:format>image/svg+xml</dc:format>
        <dc:type
           rdf:resource="http://purl.org/dc/dcmitype/StillImage" />
        <dc:title></dc:title>
      </cc:Work>
    </rdf:RDF>
  </metadata>
  <g
     inkscape:label="Layer 1"
     inkscape:groupmode="layer"
     id="layer1"
     transform="translate(0,-52.362183)">
    <path
       inkscape:connector-curvature="0"
       id="path3162"
       style="fill:#100f0d;fill-opacity:1;fill-rule:nonzero;stroke:none"
       d="m 885.24262,909.8076 -570.18882,0 0,-82.42099 87.72402,-205.96598 131.58598,164.82471 123.44557,-127.70406 158.70357,-57.84728 68.72968,154.54817 0,154.56543 z m 52.46611,-432.67578 -687.82969,0 c -19.99038,0 -36.20246,17.26059 -36.20246,38.47234 l 0,451.94672 c 0,21.21185 16.21208,38.47242 36.20246,38.47242 l 687.82969,0 c 20.02468,0 36.21965,-17.26057 36.21965,-38.47242 l 0,-451.94672 c 0,-21.21175 -16.19497,-38.47234 -36.21965,-38.47234 z M 837.25895,390.60356 740.02061,120.3436 C 732.84194,100.39688 711.78676,89.842959 693.01578,96.740269 L 46.643767,334.76655 c -18.788224,6.89732 -28.199483,28.681 -21.020808,48.62778 l 102.527891,285.04236 0,-152.83253 c 0,-68.8864 54.61283,-125.0006 121.72819,-125.0006 l 170.79386,0 203.6818,-144.28885 117.88131,144.28885 95.02294,0" />
  </g>
</svg>
