<?xml version="1.0" encoding="UTF-8" standalone="no"?>
<!-- Created with Inkscape (http://www.inkscape.org/) -->

<svg
   xmlns:dc="http://purl.org/dc/elements/1.1/"
   xmlns:cc="http://creativecommons.org/ns#"
   xmlns:rdf="http://www.w3.org/1999/02/22-rdf-syntax-ns#"
   xmlns:svg="http://www.w3.org/2000/svg"
   xmlns="http://www.w3.org/2000/svg"
   xmlns:sodipodi="http://sodipodi.sourceforge.net/DTD/sodipodi-0.dtd"
   xmlns:inkscape="http://www.inkscape.org/namespaces/inkscape"
   width="1000"
   height="1000"
   id="svg3282"
   version="1.1"
   inkscape:version="0.48.3.1 r9886"
   sodipodi:docname="close.svg">
  <defs
     id="defs3284" />
  <sodipodi:namedview
     id="base"
     pagecolor="#ffffff"
     bordercolor="#666666"
     borderopacity="1.0"
     inkscape:pageopacity="0.0"
     inkscape:pageshadow="2"
     inkscape:zoom="0.175"
     inkscape:cx="518.30672"
     inkscape:cy="-758.84992"
     inkscape:document-units="px"
     inkscape:current-layer="layer1"
     showgrid="false"
     inkscape:window-width="1680"
     inkscape:window-height="983"
     inkscape:window-x="0"
     inkscape:window-y="0"
     inkscape:window-maximized="1" />
  <metadata
     id="metadata3287">
    <rdf:RDF>
      <cc:Work
         rdf:about="">
        <dc:format>image/svg+xml</dc:format>
        <dc:type
           rdf:resource="http://purl.org/dc/dcmitype/StillImage" />
        <dc:title></dc:title>
      </cc:Work>
    </rdf:RDF>
  </metadata>
  <g
     inkscape:label="Layer 1"
     inkscape:groupmode="layer"
     id="layer1"
     transform="translate(0,-52.362183)">
    <path
       style="fill:#100f0d;fill-opacity:1;fill-rule:nonzero;stroke:none"
       d="m 38.9375,552.36217 c 0,254.6598 206.38251,461.06253 461.0625,461.06253 254.58075,0 461.0625,-206.40273 461.0625,-461.06253 C 961.0625,297.76207 754.58075,91.299675 500,91.299675 245.32001,91.299675 38.9375,297.76207 38.9375,552.36217 z m 212.125,138.75 c -0.15507,-6.66497 2.27754,-14.29044 7.59375,-22.375 l 220.0625,-355.1875 c 0,0 8.85708,-12.625 21.3125,-12.625 12.36548,0 21.25,12.625 21.25,12.625 l 220.03125,355.1875 c 17.012,25.8706 4.5077,47.0625 -27.6875,47.0625 l -427.15625,0 c -22.19605,0 -35.0651,-10.02456 -35.40625,-24.6875 z"
       id="path3100"
       inkscape:connector-curvature="0" />
  </g>
</svg>
